<?xml version="1.0" standalone="no"?>
<!DOCTYPE svg PUBLIC "-//W3C//DTD SVG 20010904//EN"
 "http://www.w3.org/TR/2001/REC-SVG-20010904/DTD/svg10.dtd">
<svg version="1.0" xmlns="http://www.w3.org/2000/svg"
 width="256.000000pt" height="256.000000pt" viewBox="0 0 256.000000 256.000000"
 preserveAspectRatio="xMidYMid meet">

<g transform="translate(0.000000,256.000000) scale(0.100000,-0.100000)"
fill="#000000" stroke="none">
<path d="M510 2460 l0 -50 -75 0 -75 0 0 -80 c0 -79 0 -80 25 -80 21 0 25 -5
25 -30 0 -25 -4 -30 -25 -30 -20 0 -25 -5 -25 -25 0 -21 -5 -25 -30 -25 -29 0
-30 -1 -30 -50 l0 -50 55 0 c52 0 55 1 55 25 0 20 5 25 25 25 20 0 25 -5 25
-25 0 -24 3 -25 55 -25 54 0 55 0 55 -30 0 -30 1 -30 55 -30 48 0 55 -2 55
-20 0 -16 7 -20 30 -20 27 0 30 -3 30 -30 0 -23 4 -30 20 -30 16 0 20 -7 20
-30 0 -27 3 -30 30 -30 23 0 30 -4 30 -20 0 -15 7 -20 25 -20 23 0 25 -3 25
-50 0 -49 1 -50 30 -50 l30 0 0 -60 c0 -57 1 -60 25 -60 23 0 25 -3 25 -50 0
-49 1 -50 30 -50 25 0 30 -4 30 -25 0 -21 -5 -25 -30 -25 -25 0 -30 -4 -30
-25 0 -25 -1 -25 -80 -25 -79 0 -80 0 -80 25 0 23 -3 25 -50 25 -47 0 -50 -2
-50 -25 0 -18 5 -25 20 -25 15 0 20 -7 20 -25 0 -21 5 -25 30 -25 27 0 30 -3
30 -30 0 -30 1 -30 55 -30 l55 0 0 -50 0 -50 -55 0 c-54 0 -55 0 -55 -30 0
-27 -3 -30 -30 -30 -23 0 -30 -4 -30 -20 0 -16 7 -20 30 -20 27 0 30 -3 30
-30 0 -25 4 -30 25 -30 20 0 25 -5 25 -25 0 -24 3 -25 55 -25 52 0 55 1 55 25
0 21 5 25 30 25 29 0 30 1 30 50 0 47 2 50 25 50 18 0 25 -5 25 -20 0 -15 7
-20 25 -20 24 0 25 -3 25 -55 0 -54 0 -55 30 -55 25 0 30 -4 30 -25 0 -20 5
-25 25 -25 20 0 25 -5 25 -25 0 -21 5 -25 30 -25 25 0 30 4 30 25 0 20 5 25
25 25 20 0 25 -5 25 -25 0 -20 5 -25 25 -25 20 0 25 5 25 25 0 21 5 25 30 25
25 0 30 -4 30 -25 0 -20 5 -25 25 -25 23 0 25 3 25 50 0 49 1 50 30 50 25 0
30 -4 30 -25 0 -20 5 -25 25 -25 23 0 25 3 25 50 0 49 1 50 30 50 29 0 30 1
30 50 0 43 3 50 20 50 13 0 20 -7 20 -20 0 -16 7 -20 30 -20 27 0 30 -3 30
-30 0 -27 3 -30 30 -30 27 0 30 3 30 30 0 25 4 30 25 30 18 0 25 5 25 20 0 16
7 20 30 20 27 0 30 3 30 30 0 27 -3 30 -30 30 -25 0 -30 4 -30 25 0 20 -5 25
-25 25 -20 0 -25 -5 -25 -25 0 -21 -5 -25 -30 -25 -25 0 -30 4 -30 25 0 23 -3
25 -50 25 l-50 0 0 55 c0 48 2 55 20 55 18 0 20 7 20 75 0 68 -2 75 -20 75
-17 0 -20 -7 -20 -50 0 -49 -1 -50 -30 -50 -25 0 -30 -4 -30 -25 0 -25 -1 -25
-80 -25 -79 0 -80 0 -80 25 0 21 -5 25 -30 25 -29 0 -30 1 -30 50 0 47 -2 50
-25 50 l-25 0 0 110 0 110 25 0 c18 0 25 5 25 20 0 16 7 20 30 20 29 0 30 1
30 50 l0 50 80 0 80 0 0 -50 c0 -49 1 -50 30 -50 l30 0 0 80 0 80 50 0 c49 0
50 1 50 30 0 30 1 30 55 30 48 0 55 2 55 20 0 16 7 20 30 20 23 0 30 -4 30
-20 0 -17 7 -20 50 -20 l50 0 0 50 c0 47 -2 50 -25 50 -20 0 -25 5 -25 25 0
20 -5 25 -25 25 -20 0 -25 5 -25 25 0 20 5 25 25 25 20 0 25 5 25 25 0 20 5
25 25 25 20 0 25 -5 25 -25 0 -20 5 -25 25 -25 20 0 25 -5 25 -25 0 -21 5 -25
30 -25 l30 0 0 105 0 105 -30 0 c-30 0 -30 1 -30 55 l0 55 -50 0 c-43 0 -50 3
-50 20 0 18 -7 20 -55 20 -48 0 -55 -2 -55 -20 0 -15 -7 -20 -25 -20 -21 0
-25 -5 -25 -30 0 -27 -3 -30 -30 -30 -25 0 -30 -4 -30 -25 0 -21 -5 -25 -30
-25 -30 0 -30 -1 -30 -55 0 -48 -2 -55 -20 -55 -15 0 -20 -7 -20 -25 0 -21 -5
-25 -30 -25 -29 0 -30 -1 -30 -50 0 -47 -2 -50 -25 -50 -21 0 -25 -5 -25 -30
0 -27 -3 -30 -30 -30 -23 0 -30 -4 -30 -20 0 -18 -7 -20 -55 -20 -54 0 -55 0
-55 -30 l0 -30 -135 0 -135 0 0 30 c0 29 -1 30 -50 30 -43 0 -50 3 -50 20 0
16 -7 20 -30 20 -27 0 -30 3 -30 30 0 25 -4 30 -25 30 -20 0 -25 5 -25 25 0
21 -5 25 -30 25 -25 0 -30 4 -30 25 0 20 -5 25 -25 25 -24 0 -25 3 -25 55 0
54 0 55 -30 55 -29 0 -30 1 -30 50 0 43 -3 50 -20 50 -16 0 -20 7 -20 30 0 27
-3 30 -30 30 -29 0 -30 1 -30 50 l0 50 -85 0 -85 0 0 -50z m820 -1180 c0 -27
-3 -30 -30 -30 -27 0 -30 3 -30 30 0 27 3 30 30 30 27 0 30 -3 30 -30z m100
-80 c0 -47 -2 -50 -25 -50 -23 0 -25 3 -25 50 0 47 2 50 25 50 23 0 25 -3 25
-50z m110 0 c0 -47 -2 -50 -25 -50 -23 0 -25 3 -25 50 0 47 2 50 25 50 23 0
25 -3 25 -50z m110 0 c0 -47 -2 -50 -25 -50 -23 0 -25 3 -25 50 0 47 2 50 25
50 23 0 25 -3 25 -50z"/>
<path d="M1600 1570 l0 -110 25 0 25 0 0 110 0 110 -25 0 -25 0 0 -110z"/>
<path d="M500 760 c0 -38 4 -50 15 -50 11 0 15 12 15 50 0 38 -4 50 -15 50
-11 0 -15 -12 -15 -50z"/>
<path d="M660 780 c0 -23 -4 -30 -20 -30 -13 0 -20 -7 -20 -20 0 -13 -7 -20
-20 -20 -17 0 -20 -7 -20 -40 0 -29 4 -40 15 -40 10 0 15 10 15 30 0 23 4 30
20 30 13 0 20 7 20 20 0 13 7 20 20 20 17 0 20 7 20 40 0 29 -4 40 -15 40 -10
0 -15 -10 -15 -30z"/>
<path d="M940 780 c0 -28 -2 -30 -40 -30 l-40 0 0 -80 c0 -64 3 -80 15 -80 12
0 15 14 15 70 l0 70 40 0 40 0 0 40 c0 29 -4 40 -15 40 -10 0 -15 -10 -15 -30z"/>
<path d="M1220 660 l0 -150 -25 0 c-14 0 -25 -4 -25 -10 0 -5 18 -10 40 -10
l40 0 0 160 c0 136 -2 160 -15 160 -13 0 -15 -23 -15 -150z"/>
<path d="M1460 800 c0 -5 7 -10 15 -10 8 0 15 5 15 10 0 6 -7 10 -15 10 -8 0
-15 -4 -15 -10z"/>
<path d="M1820 800 c0 -5 7 -10 15 -10 8 0 15 5 15 10 0 6 -7 10 -15 10 -8 0
-15 -4 -15 -10z"/>
<path d="M2140 780 l0 -30 -80 0 c-73 0 -80 -2 -80 -20 0 -11 7 -20 15 -20 8
0 15 5 15 10 0 6 33 10 80 10 l80 0 0 40 c0 29 -4 40 -15 40 -10 0 -15 -10
-15 -30z"/>
<path d="M1500 760 c0 -6 -33 -10 -80 -10 l-80 0 0 -80 c0 -64 3 -80 15 -80
12 0 15 14 15 70 l0 70 80 0 c73 0 80 2 80 20 0 11 -7 20 -15 20 -8 0 -15 -4
-15 -10z"/>
<path d="M1860 640 l0 -130 -85 0 c-50 0 -85 -4 -85 -10 0 -6 40 -10 100 -10
l100 0 0 140 c0 118 -2 140 -15 140 -13 0 -15 -21 -15 -130z"/>
<path d="M730 740 c0 -5 11 -10 25 -10 14 0 25 5 25 10 0 6 -11 10 -25 10 -14
0 -25 -4 -25 -10z"/>
<path d="M1060 630 l0 -120 -25 0 c-14 0 -25 -4 -25 -10 0 -5 18 -10 40 -10
l40 0 0 120 0 120 25 0 c14 0 25 5 25 10 0 6 -18 10 -40 10 l-40 0 0 -120z"/>
<path d="M1700 670 c0 -64 3 -80 15 -80 12 0 15 14 15 70 0 68 1 70 25 70 14
0 25 5 25 10 0 6 -18 10 -40 10 l-40 0 0 -80z"/>
<path d="M1500 600 l0 -90 -85 0 c-50 0 -85 -4 -85 -10 0 -6 40 -10 100 -10
l100 0 0 100 c0 82 -3 100 -15 100 -12 0 -15 -17 -15 -90z"/>
<path d="M2140 660 l0 -30 -80 0 -80 0 0 -60 c0 -57 -1 -60 -25 -60 -14 0 -25
-4 -25 -10 0 -5 18 -10 40 -10 l40 0 0 60 0 60 80 0 80 0 0 40 c0 29 -4 40
-15 40 -10 0 -15 -10 -15 -30z"/>
<path d="M500 570 c0 -57 -1 -60 -25 -60 -14 0 -25 -4 -25 -10 0 -5 18 -10 40
-10 l40 0 0 54 c0 30 3 61 6 70 4 12 0 16 -15 16 -19 0 -21 -6 -21 -60z"/>
<path d="M620 600 c0 -5 7 -10 15 -10 8 0 15 5 15 10 0 6 -7 10 -15 10 -8 0
-15 -4 -15 -10z"/>
<path d="M660 540 c0 -25 -4 -30 -25 -30 -14 0 -25 -4 -25 -10 0 -5 18 -10 40
-10 l40 0 0 40 c0 29 -4 40 -15 40 -10 0 -15 -10 -15 -30z"/>
<path d="M940 540 l0 -30 -105 0 c-63 0 -105 -4 -105 -10 0 -6 47 -10 120 -10
l120 0 0 40 c0 29 -4 40 -15 40 -10 0 -15 -10 -15 -30z"/>
<path d="M780 360 c0 -5 7 -10 15 -10 8 0 15 5 15 10 0 6 -7 10 -15 10 -8 0
-15 -4 -15 -10z"/>
<path d="M1100 220 l0 -150 -25 0 c-14 0 -25 -4 -25 -10 0 -5 18 -10 40 -10
l40 0 0 160 c0 136 -2 160 -15 160 -13 0 -15 -23 -15 -150z"/>
<path d="M1380 300 c0 -63 -2 -70 -20 -70 -13 0 -20 -7 -20 -20 0 -11 7 -20
15 -20 8 0 15 5 15 10 0 6 9 10 20 10 18 0 20 7 20 80 0 64 -3 80 -15 80 -12
0 -15 -14 -15 -70z"/>
<path d="M1620 360 c0 -5 7 -10 15 -10 8 0 15 5 15 10 0 6 -7 10 -15 10 -8 0
-15 -4 -15 -10z"/>
<path d="M1940 340 l0 -30 -80 0 c-73 0 -80 -2 -80 -20 0 -11 7 -20 15 -20 8
0 15 5 15 10 0 6 33 10 80 10 l80 0 0 40 c0 29 -4 40 -15 40 -10 0 -15 -10
-15 -30z"/>
<path d="M820 300 c0 -25 -4 -30 -25 -30 -14 0 -25 -4 -25 -10 0 -5 18 -10 40
-10 l40 0 0 40 c0 29 -4 40 -15 40 -10 0 -15 -10 -15 -30z"/>
<path d="M1660 200 l0 -130 -105 0 c-63 0 -105 -4 -105 -10 0 -6 47 -10 120
-10 l120 0 0 140 c0 118 -2 140 -15 140 -13 0 -15 -21 -15 -130z"/>
<path d="M660 230 c0 -64 3 -80 15 -80 12 0 15 14 15 70 0 68 1 70 25 70 14 0
25 5 25 10 0 6 -18 10 -40 10 l-40 0 0 -80z"/>
<path d="M980 290 c0 -13 -7 -20 -20 -20 -13 0 -20 -7 -20 -20 0 -11 7 -20 15
-20 8 0 15 5 15 10 0 6 9 10 20 10 11 0 20 6 20 14 0 8 3 21 6 30 4 12 0 16
-15 16 -14 0 -21 -6 -21 -20z"/>
<path d="M1220 270 c0 -29 4 -40 15 -40 10 0 15 10 15 30 0 25 4 30 25 30 14
0 25 5 25 10 0 6 -18 10 -40 10 l-40 0 0 -40z"/>
<path d="M1500 230 c0 -64 3 -80 15 -80 12 0 15 14 15 70 0 68 1 70 25 70 14
0 25 5 25 10 0 6 -18 10 -40 10 l-40 0 0 -80z"/>
<path d="M1940 180 c0 -63 -2 -70 -20 -70 -13 0 -20 -7 -20 -20 0 -18 -7 -20
-85 -20 -50 0 -85 -4 -85 -10 0 -6 40 -10 100 -10 93 0 100 1 100 20 0 13 7
20 20 20 18 0 20 7 20 80 0 64 -3 80 -15 80 -12 0 -15 -14 -15 -70z"/>
<path d="M1730 180 c0 -6 28 -10 65 -10 37 0 65 4 65 10 0 6 -28 10 -65 10
-37 0 -65 -4 -65 -10z"/>
<path d="M820 120 l0 -50 -105 0 c-63 0 -105 -4 -105 -10 0 -6 47 -10 120 -10
l120 0 0 60 c0 47 -3 60 -15 60 -11 0 -15 -12 -15 -50z"/>
<path d="M1380 120 c0 -47 -2 -50 -25 -50 -14 0 -25 -4 -25 -10 0 -5 18 -10
40 -10 l40 0 0 60 c0 47 -3 60 -15 60 -11 0 -15 -12 -15 -50z"/>
<path d="M940 110 c0 -36 -2 -40 -25 -40 -14 0 -25 -4 -25 -10 0 -5 18 -10 40
-10 l40 0 0 40 c0 36 3 40 25 40 14 0 25 5 25 10 0 6 -18 10 -40 10 l-40 0 0
-40z"/>
<path d="M1220 110 c0 -36 -2 -40 -25 -40 -14 0 -25 -4 -25 -10 0 -5 18 -10
40 -10 39 0 40 1 40 34 0 19 3 41 6 50 4 12 0 16 -15 16 -18 0 -21 -6 -21 -40z"/>
</g>
</svg>
